<svg xmlns="http://www.w3.org/2000/svg" width="1200" height="240" viewBox="0 0 1200 240">
  <defs>
    <linearGradient id="g" x1="0" y1="0" x2="1" y2="0">
      <stop offset="0" stop-color="#1F3A5F"/>
      <stop offset="1" stop-color="#3C7DD9"/>
    </linearGradient>
    <style>
      .name{font:700 56px 'Segoe UI',Helvetica,Arial,sans-serif;fill:#fff;animation:up .9s ease-out .1s both}
      .sub{font:400 24px 'Segoe UI',Helvetica,Arial,sans-serif;fill:#DCE9FF;animation:up .9s ease-out .5s both}
      .dot{fill:#8DBDFF;opacity:.18}
      @keyframes up{from{opacity:0;transform:translateY(12px)}to{opacity:1;transform:translateY(0)}}
    </style>
  </defs>
  <rect width="1200" height="240" fill="url(#g)"/>
  <path d="M0 190 C 200 150, 400 230, 600 195 S 1000 150, 1200 190 L1200 240 L0 240 Z" fill="#ffffff" opacity=".08"/>
  <path d="M0 210 C 250 180, 450 245, 700 212 S 1050 180, 1200 205 L1200 240 L0 240 Z" fill="#ffffff" opacity=".10"/>
  <g class="dot">
    <circle cx="1030" cy="60" r="4"/><circle cx="1070" cy="85" r="4"/><circle cx="1110" cy="55" r="4"/>
    <circle cx="1060" cy="120" r="4"/><circle cx="1120" cy="110" r="4"/>
    <line x1="1030" y1="60" x2="1070" y2="85" stroke="#8DBDFF" stroke-width="2"/>
    <line x1="1070" y1="85" x2="1110" y2="55" stroke="#8DBDFF" stroke-width="2"/>
    <line x1="1070" y1="85" x2="1060" y2="120" stroke="#8DBDFF" stroke-width="2"/>
    <line x1="1070" y1="85" x2="1120" y2="110" stroke="#8DBDFF" stroke-width="2"/>
  </g>
  <text x="600" y="112" text-anchor="middle" class="name">Chaabane Ouammou</text>
  <text x="600" y="156" text-anchor="middle" class="sub">Data &amp; IA · LLM, RAG, Machine Learning</text>
</svg>
